<?xml version="1.0" standalone="no"?>
<!DOCTYPE svg PUBLIC "-//W3C//DTD SVG 20010904//EN"
 "http://www.w3.org/TR/2001/REC-SVG-20010904/DTD/svg10.dtd">
<svg version="1.0" xmlns="http://www.w3.org/2000/svg"
 width="649.000000pt" height="511.000000pt" viewBox="0 0 649.000000 511.000000"
 preserveAspectRatio="xMidYMid meet">

<g transform="translate(0.000000,511.000000) scale(0.100000,-0.100000)"
fill="#000000" stroke="none">
<path d="M2665 4879 c-180 -10 -258 -54 -395 -226 -52 -65 -135 -165 -186
-223 -50 -58 -122 -145 -159 -195 -38 -49 -94 -119 -125 -155 -31 -36 -76 -92
-100 -125 -46 -61 -175 -220 -305 -375 -39 -47 -99 -124 -133 -171 -33 -47
-81 -108 -105 -135 -86 -96 -219 -269 -234 -304 -20 -48 -13 -177 16 -255 12
-33 28 -88 36 -121 16 -75 50 -144 70 -144 18 0 9 -29 -16 -50 -15 -12 -19
-37 -25 -146 l-7 -131 -231 -77 c-127 -43 -268 -95 -314 -116 -70 -33 -82 -42
-82 -63 l0 -25 111 29 c61 16 150 43 197 59 308 109 305 108 315 70 8 -29 -5
-39 -89 -64 -227 -67 -421 -129 -444 -141 l-25 -14 27 -1 c15 0 90 14 168 31
138 30 185 34 138 13 -59 -28 -79 -35 -165 -59 -91 -25 -155 -31 -188 -19 -13
6 -14 9 -3 16 8 5 -5 6 -32 2 -51 -7 -57 -11 -62 -39 -3 -19 3 -20 132 -20
116 0 148 4 226 27 50 14 107 33 125 41 19 8 54 22 79 32 25 9 60 25 78 36 27
16 34 16 38 4 14 -36 -2 -48 -126 -92 -185 -65 -369 -120 -420 -126 -25 -4
-46 -6 -47 -6 -2 -1 -3 -7 -3 -14 0 -17 -35 -50 -74 -69 l-30 -15 47 -1 c30
-1 67 8 104 24 32 15 94 35 138 46 44 11 148 44 231 74 83 30 156 54 162 54 7
0 12 -13 12 -28 0 -28 -3 -29 -192 -91 -385 -126 -434 -141 -451 -141 -21 0
-87 -31 -87 -42 0 -4 10 -12 21 -19 26 -14 83 -6 181 25 40 13 106 31 146 40
85 20 218 62 314 99 l66 26 6 -25 c8 -32 2 -41 -37 -53 -18 -5 -54 -18 -82
-30 -27 -11 -102 -36 -165 -55 -320 -97 -340 -106 -327 -139 9 -23 36 -21 120
7 40 13 106 31 147 40 42 9 89 24 105 32 17 9 69 28 117 44 48 16 96 34 108
40 20 10 20 8 20 -103 0 -138 2 -141 101 -139 l69 1 -25 -23 -25 -23 78 -75
c527 -508 890 -876 924 -936 l30 -53 62 57 c33 32 75 72 91 90 35 37 259 218
355 286 37 25 120 95 186 156 202 183 221 194 429 257 66 20 156 50 200 66 44
15 118 40 165 54 47 15 105 33 130 41 25 8 128 42 230 75 102 33 201 66 220
74 65 24 284 96 350 114 36 10 94 30 130 45 36 15 147 56 248 92 191 66 241
93 241 132 1 37 -26 37 -107 -1 -42 -19 -101 -43 -130 -52 -61 -19 -143 -25
-149 -10 -3 10 146 66 173 65 14 0 39 28 32 35 -3 3 -45 -9 -94 -26 -49 -17
-117 -35 -152 -40 -35 -4 -67 -11 -72 -14 -5 -3 -46 -14 -92 -25 -46 -10 -137
-35 -203 -54 -66 -20 -147 -43 -180 -51 -33 -8 -154 -45 -270 -83 -115 -38
-246 -80 -289 -92 -44 -12 -114 -35 -155 -50 -42 -15 -218 -74 -391 -130 -173
-56 -349 -115 -390 -131 -90 -34 -230 -79 -359 -114 -52 -14 -148 -49 -213
-77 l-119 -52 -21 21 -21 21 59 30 c33 16 111 45 174 65 298 94 372 118 460
150 373 135 501 179 870 297 140 45 329 106 420 135 91 29 226 72 300 95 74
23 173 55 220 71 47 17 150 50 230 75 166 51 521 170 625 209 39 14 96 35 128
46 52 19 57 24 57 50 0 17 -5 29 -12 29 -46 0 -194 -36 -313 -75 -77 -26 -176
-58 -220 -71 -161 -49 -385 -114 -394 -114 -6 0 -22 -5 -38 -12 -102 -42 -601
-207 -678 -224 -16 -4 -50 -15 -75 -24 -25 -10 -193 -67 -375 -126 -181 -59
-415 -137 -520 -172 -104 -36 -224 -76 -265 -89 -77 -26 -207 -71 -295 -103
-27 -10 -104 -37 -170 -60 -66 -22 -153 -54 -194 -71 -73 -30 -111 -34 -118
-13 -2 6 23 19 57 28 35 10 60 23 60 30 0 8 11 13 26 13 15 0 30 7 35 14 4 8
13 14 19 14 6 0 14 5 18 10 13 19 52 35 84 35 66 1 153 27 246 73 44 23 54 37
25 37 -10 -1 -83 -23 -163 -51 -146 -50 -199 -67 -345 -112 -135 -41 -137 -41
-133 -17 4 28 52 47 423 170 165 55 327 109 360 121 137 49 595 204 795 270
118 39 280 93 360 121 80 27 175 58 212 69 37 10 84 25 105 33 21 8 85 29 143
46 58 17 150 46 205 65 55 18 147 47 205 65 58 18 130 41 160 52 30 11 75 26
100 33 274 82 361 111 470 152 36 14 83 31 105 38 22 8 83 31 135 52 87 36
112 57 88 74 -8 5 -146 -18 -183 -31 -11 -4 -74 -24 -140 -44 -66 -21 -145
-46 -175 -57 -115 -41 -764 -244 -905 -284 -33 -9 -76 -23 -95 -30 -33 -13
-384 -129 -655 -217 -66 -22 -345 -114 -620 -205 -275 -92 -561 -186 -635
-211 -160 -52 -199 -67 -350 -128 -148 -60 -229 -88 -236 -82 -3 3 -6 17 -7
32 -2 28 9 34 204 101 37 13 86 32 110 43 24 11 94 34 154 52 61 18 160 51
220 73 171 62 386 136 820 282 220 73 414 139 430 144 85 30 435 144 540 176
66 20 143 44 170 55 28 10 79 26 114 35 35 9 80 22 100 29 40 15 174 57 446
141 99 31 225 70 280 87 55 17 125 41 155 53 31 12 74 26 97 30 23 3 47 13 53
20 6 7 46 27 89 45 75 30 121 60 121 80 0 4 -14 12 -31 15 -25 6 -46 0 -101
-29 -38 -20 -157 -65 -266 -101 -108 -36 -210 -70 -227 -76 -16 -6 -79 -26
-140 -44 -60 -18 -135 -40 -165 -50 -30 -10 -149 -48 -265 -85 -256 -82 -461
-147 -495 -155 -25 -6 -207 -70 -245 -85 -30 -13 -286 -95 -415 -134 -64 -19
-145 -45 -180 -59 -136 -51 -209 -77 -325 -112 -66 -20 -145 -45 -175 -56 -30
-11 -77 -27 -105 -34 -27 -8 -74 -26 -102 -40 -29 -14 -57 -25 -62 -25 -5 0
-42 -13 -83 -29 -40 -16 -140 -50 -223 -74 -82 -24 -188 -59 -235 -76 -166
-63 -310 -111 -334 -111 -30 0 -52 23 -34 37 18 14 430 156 714 247 61 19 282
94 490 167 362 125 755 259 819 279 17 5 95 32 175 60 80 28 165 57 190 65 25
7 65 21 90 30 25 9 65 23 90 30 188 55 572 172 685 210 39 13 104 33 145 45
134 40 173 52 345 110 167 57 350 131 369 150 21 21 -6 22 -54 1 -45 -20 -57
-21 -111 -11 -39 7 -71 8 -92 2 -50 -15 -151 -37 -164 -35 -7 0 -13 -3 -13 -8
0 -5 -12 -9 -26 -9 -22 0 -24 2 -14 14 6 8 17 13 25 10 7 -3 16 0 20 5 3 6 11
9 16 5 6 -3 19 3 30 14 23 25 78 42 139 42 74 0 512 158 745 268 165 78 207
105 199 127 -13 33 -59 23 -204 -41 -42 -19 -79 -34 -84 -34 -4 0 -80 -29
-169 -64 -198 -78 -289 -110 -387 -136 -41 -10 -85 -22 -98 -26 -22 -6 -23 -4
-20 37 l3 44 47 7 c26 3 62 14 80 23 18 9 57 26 86 37 28 10 52 23 52 28 0 5
-24 1 -52 -10 -29 -10 -88 -29 -130 -42 l-76 -24 -4 28 c-3 15 -2 32 1 37 7
11 177 71 306 107 91 26 125 45 125 71 0 34 -8 33 -325 -68 -49 -16 -93 -29
-98 -29 -4 0 -7 17 -5 37 3 32 9 40 48 61 41 22 335 127 440 157 130 38 163
63 136 100 -17 23 -5 26 -269 -64 -162 -55 -338 -93 -354 -77 -11 11 8 37 34
47 16 6 125 44 243 84 204 70 331 123 345 145 11 18 -73 11 -162 -15 -112 -33
-366 -112 -417 -131 -47 -16 -53 -13 -40 24 10 29 68 56 359 167 436 166 580
233 580 270 0 14 -8 21 -27 23 -32 4 -187 -50 -353 -123 -257 -114 -520 -215
-557 -215 -5 0 -8 17 -6 37 3 35 6 38 43 45 41 7 171 58 306 121 41 19 102 45
136 57 58 21 72 35 73 74 0 25 -102 -7 -238 -74 -81 -40 -184 -85 -229 -100
l-81 -28 -6 21 c-8 31 -7 180 2 193 4 5 43 20 87 31 44 11 154 47 245 78 91
32 197 69 235 82 76 25 155 64 155 75 0 31 -130 6 -344 -66 -171 -57 -196 -63
-196 -47 0 5 -13 14 -28 20 -23 9 -44 8 -112 -9 -47 -11 -103 -20 -125 -20
-36 1 -38 2 -22 14 10 8 39 21 65 29 26 8 92 29 147 47 55 17 141 51 190 75
50 24 116 51 148 60 44 13 57 21 57 36 0 12 -7 19 -20 19 -28 0 -133 -37 -215
-76 -38 -18 -92 -38 -120 -45 -72 -17 -149 -43 -232 -78 -40 -17 -127 -44
-195 -61 -124 -29 -507 -154 -563 -182 -16 -9 -79 -29 -140 -46 -99 -27 -139
-36 -280 -61 -45 -8 -75 -4 -75 10 0 15 71 45 150 64 41 10 91 24 110 32 19 9
64 24 100 34 154 43 801 268 922 319 40 18 98 40 128 50 30 10 98 35 150 54
177 65 245 86 385 120 171 42 215 59 215 86 0 27 -10 26 -174 -14 -110 -28
-144 -40 -167 -62 -16 -15 -30 -26 -31 -23 -2 2 -8 13 -14 24 -6 11 -21 21
-33 23 -30 5 -194 -39 -321 -86 -219 -81 -249 -92 -385 -136 -136 -43 -288
-89 -489 -146 -54 -15 -110 -37 -125 -49 -74 -59 -192 -112 -282 -126 -50 -7
-134 -32 -164 -48 -42 -23 -47 -14 -9 18 21 19 71 46 109 61 247 92 352 186
415 370 16 45 20 84 20 185 0 138 -10 205 -43 284 -43 103 -117 167 -207 180
-60 8 -1535 12 -1675 4z m1438 -105 c13 -13 -157 -229 -250 -319 l-63 -60
-745 0 c-667 0 -745 2 -745 16 0 8 44 64 98 125 53 60 117 134 142 163 24 30
58 60 75 67 24 11 176 13 756 14 399 0 729 -3 732 -6z m286 -23 c40 -28 39
-43 -3 -35 -79 14 -138 -29 -268 -197 -14 -19 -88 -113 -164 -209 -76 -96
-217 -276 -313 -400 -97 -124 -181 -232 -188 -240 -6 -8 -45 -58 -85 -110 -88
-116 -95 -124 -135 -170 -18 -21 -33 -41 -33 -46 0 -5 -21 -31 -46 -59 -73
-79 -97 -113 -90 -131 7 -18 22 -15 107 23 31 13 66 38 78 54 12 17 27 27 33
23 7 -5 9 -1 5 9 -10 27 12 19 25 -8 6 -14 17 -25 24 -25 7 0 54 14 106 31 51
17 107 33 123 35 21 2 45 20 81 60 l51 56 23 -29 c14 -18 24 -23 27 -15 3 6
12 12 22 12 9 0 55 14 100 30 46 17 89 29 95 26 6 -2 2 -5 -9 -5 -17 -1 -17
-3 -5 -11 12 -8 12 -10 -5 -10 -11 0 -28 -7 -38 -14 -18 -14 -18 -14 0 -19 10
-3 -2 -3 -27 -1 -33 3 -40 2 -25 -5 16 -8 13 -10 -20 -10 -22 -1 -48 -1 -57
-2 -10 0 -20 -4 -23 -10 -3 -5 0 -6 8 -3 8 3 18 1 21 -4 5 -9 -176 -77 -229
-87 -11 -2 -36 -10 -56 -19 -20 -8 -39 -12 -43 -9 -3 4 -6 1 -6 -5 0 -7 -3
-11 -7 -10 -5 1 -17 -3 -28 -9 -11 -5 -45 -16 -75 -23 -30 -7 -69 -19 -87 -26
-20 -9 -34 -10 -38 -4 -3 6 -12 10 -18 10 -8 0 -7 -3 2 -9 11 -7 9 -10 -8 -16
-13 -4 -25 -4 -28 -1 -3 3 -12 -2 -20 -10 -9 -8 -23 -12 -34 -9 -10 4 -19 2
-19 -4 0 -6 -7 -7 -17 -4 -11 4 -14 3 -9 -5 4 -7 0 -15 -10 -19 -10 -4 -19 -2
-22 5 -2 7 -8 12 -14 12 -6 0 -8 -7 -4 -15 3 -8 2 -14 -2 -13 -4 1 -18 -3 -32
-9 -49 -20 -82 -25 -74 -11 6 10 3 9 -9 -1 -10 -8 -29 -11 -44 -8 -27 5 -27 5
-8 -10 20 -16 20 -16 0 -9 -11 4 -33 9 -50 12 -25 4 -26 3 -10 -5 14 -7 15
-10 5 -10 -11 -1 -12 -3 -3 -9 7 -5 -13 -7 -44 -5 -42 2 -67 -3 -97 -19 -23
-11 -53 -27 -68 -34 -14 -8 -33 -14 -42 -14 -9 0 -19 -7 -23 -16 -5 -12 -7
-13 -14 -2 -6 10 -12 8 -28 -8 -14 -16 -27 -20 -47 -16 -15 3 -25 1 -21 -4 3
-6 -9 -8 -29 -6 -18 2 -32 8 -29 12 2 4 15 5 29 3 13 -3 27 1 31 8 5 8 4 10
-3 5 -15 -9 -83 4 -77 14 3 5 -3 11 -12 13 -10 3 -4 5 14 6 17 0 43 -3 56 -8
28 -11 51 -5 317 80 197 64 247 89 283 144 15 24 27 33 40 29 9 -3 17 0 17 6
0 6 -4 8 -10 5 -5 -3 -10 -3 -10 1 0 6 69 104 80 114 3 3 39 50 80 105 41 55
93 123 116 150 22 28 68 88 102 135 33 47 69 94 79 105 11 11 67 83 126 160
147 194 234 303 362 458 61 74 140 172 177 220 78 100 122 129 183 121 22 -3
51 -13 64 -23z m51 -168 c0 -16 9 -43 20 -61 24 -39 25 -53 5 -46 -11 5 -13 2
-9 -10 3 -9 9 -16 13 -16 4 0 8 -19 8 -42 l1 -43 -7 38 c-23 112 -134 116
-245 9 -26 -26 -59 -63 -72 -82 -13 -19 -52 -72 -86 -116 -35 -45 -109 -142
-164 -215 -56 -74 -112 -146 -125 -160 -13 -14 -64 -78 -113 -143 -48 -64 -93
-122 -100 -129 -6 -7 -29 -35 -51 -62 -54 -68 -61 -75 -70 -67 -5 4 -5 1 -1
-5 4 -8 -16 -40 -49 -80 -30 -37 -55 -71 -55 -75 0 -14 -30 -9 -36 6 -4 10
114 177 201 284 8 9 49 64 92 122 43 58 82 110 88 116 11 13 81 100 148 184
24 30 87 114 142 185 191 252 328 405 364 405 9 0 26 7 37 15 10 8 29 15 42
15 17 0 22 -6 22 -27z m-1565 -297 c0 -42 -45 -74 -80 -58 -39 18 -43 41 -10
69 19 17 37 23 59 21 27 -3 31 -7 31 -32z m426 24 c26 -15 24 -46 -5 -66 -58
-37 -103 10 -50 53 34 27 30 26 55 13z m-691 -28 c0 -40 -17 -52 -76 -52 -60
0 -82 17 -65 48 14 26 25 30 89 31 51 1 52 0 52 -27z m-134 -146 c3 -9 -18
-44 -51 -85 l-57 -71 -57 -1 c-31 -1 -112 -3 -181 -5 -69 -2 -131 1 -139 5
-23 14 -5 55 50 115 l51 56 189 0 c156 0 191 -3 195 -14z m532 -4 c4 -14 -92
-138 -118 -152 -10 -6 -98 -10 -194 -10 -221 0 -216 -10 -76 160 14 17 32 18
199 16 134 -1 186 -5 189 -14z m539 1 c4 -10 -51 -88 -95 -135 l-26 -28 -193
0 c-152 0 -193 3 -193 13 0 14 93 134 118 153 19 14 385 11 389 -3z m1683
-246 c0 -8 -3 -8 -9 1 -7 11 -9 11 -14 -2 -8 -20 -111 -50 -133 -38 -13 7 -10
12 19 25 19 10 46 17 59 18 12 0 32 4 43 8 23 10 35 5 35 -12z m60 13 c-8 -5
-22 -9 -30 -9 -10 0 -8 3 5 9 27 12 43 12 25 0z m-3013 -24 c8 -7 -37 -75 -84
-126 l-35 -40 -183 0 c-221 0 -227 3 -171 79 73 99 65 96 279 95 103 -1 191
-4 194 -8z m537 -8 c-1 -10 -28 -49 -60 -87 l-59 -70 -192 0 c-150 -1 -193 2
-193 12 0 7 25 44 56 82 l55 70 172 6 c228 7 222 7 221 -13z m534 -2 c3 -14
-17 -41 -93 -122 l-30 -32 -188 -5 c-108 -3 -190 -1 -193 4 -3 5 15 37 39 72
80 111 57 102 273 100 161 -1 189 -3 192 -17z m2099 18 c-3 -3 -12 -4 -19 -1
-8 3 -5 6 6 6 11 1 17 -2 13 -5z m-402 -34 c-3 -5 -12 -10 -18 -10 -7 0 -6 4
3 10 19 12 23 12 15 0z m228 -27 c-7 -2 -19 -2 -25 0 -7 3 -2 5 12 5 14 0 19
-2 13 -5z m-310 -78 c-6 -17 -19 -19 -28 -5 -3 6 1 10 10 10 10 0 13 5 9 12
-4 7 -3 8 4 4 6 -4 9 -13 5 -21z m-89 -22 c8 -19 0 -28 -31 -38 -15 -4 -23 -2
-23 5 0 6 -5 8 -10 5 -6 -4 -8 -10 -5 -14 2 -5 -7 -13 -21 -20 -30 -13 -37
-14 -29 -2 8 15 -32 24 -52 11 -15 -8 -12 -9 12 -4 29 6 29 6 10 -9 -11 -9
-26 -17 -32 -17 -7 0 -13 -4 -13 -8 0 -4 -18 -13 -40 -19 -32 -8 -40 -8 -40 3
0 14 -9 17 -45 15 -25 -1 -8 5 135 48 58 18 113 37 123 42 13 7 23 7 33 -2 12
-10 13 -9 8 5 -3 9 -2 16 4 16 5 0 13 -8 16 -17z m366 -92 c38 -27 50 -59 50
-142 l0 -75 -62 -22 c-33 -12 -64 -20 -67 -16 -3 3 -8 33 -11 67 -5 61 -6 62
-36 65 -74 7 -104 -33 -104 -143 0 -44 6 -61 35 -103 1 -1 40 -18 85 -37 87
-36 126 -65 141 -102 4 -12 9 -85 10 -161 2 -128 0 -142 -20 -175 -51 -82
-158 -145 -255 -149 -107 -4 -149 53 -144 197 l3 88 45 12 c25 6 55 15 67 19
22 7 22 5 25 -75 4 -104 16 -116 86 -79 l47 25 0 105 0 105 -109 55 c-59 30
-119 68 -132 83 -22 26 -24 36 -24 146 0 65 5 133 11 152 29 83 110 147 224
175 58 14 100 10 135 -15z m-3173 -31 c2 -8 -25 -49 -60 -90 l-63 -75 -189 0
c-185 0 -190 1 -193 21 -2 13 18 46 55 92 l58 71 195 -2 c164 -2 195 -4 197
-17z m543 6 c0 -8 -29 -50 -65 -95 l-66 -81 -189 0 c-128 0 -190 3 -190 11 0
17 20 50 72 116 l50 63 194 0 c160 0 194 -2 194 -14z m530 -7 c0 -23 -91 -143
-120 -159 -10 -6 -100 -10 -199 -10 -221 0 -218 -3 -98 143 l39 47 189 0 c186
0 189 0 189 -21z m1366 6 c9 -8 11 -15 5 -15 -6 0 -11 -7 -11 -15 0 -8 -12
-17 -27 -21 -16 -3 -35 -8 -43 -11 -47 -16 -70 -21 -70 -14 0 5 14 11 30 15
17 3 30 10 30 16 0 6 -14 4 -36 -5 -20 -8 -38 -15 -41 -15 -2 0 -1 -4 2 -10 3
-6 -5 -10 -19 -10 -14 0 -28 -5 -31 -10 -4 -6 -11 -8 -16 -5 -5 4 -9 1 -9 -5
0 -6 -4 -8 -10 -5 -5 3 -10 1 -10 -4 0 -6 -3 -10 -7 -9 -5 1 -20 -4 -36 -10
-15 -7 -39 -14 -53 -16 -14 -3 -31 -9 -37 -14 -18 -13 -107 -36 -114 -28 -3 3
-1 6 6 6 7 0 9 5 6 10 -4 6 -1 9 6 8 7 -2 13 3 14 10 0 16 67 42 109 42 16 0
26 3 23 7 -8 7 151 64 173 61 8 0 27 4 42 10 15 6 35 9 43 6 8 -4 15 -1 15 5
0 6 12 12 28 12 19 1 21 3 8 6 -15 4 -16 7 -5 14 18 11 18 11 35 -6z m44 -19
c0 -2 -7 -7 -16 -10 -8 -3 -12 -2 -9 4 6 10 25 14 25 6z m-717 -21 c-3 -9 -8
-14 -10 -11 -3 3 -2 9 2 15 9 16 15 13 8 -4z m-43 -50 c-11 -13 -8 -19 11 -17
12 2 5 -24 -10 -38 -13 -12 -14 -12 -9 1 3 9 2 22 -2 30 -8 12 4 39 17 39 3 0
0 -7 -7 -15z m948 -41 c50 -35 52 -47 52 -421 0 -398 1 -393 -87 -475 -64 -59
-141 -98 -207 -105 -42 -4 -57 -1 -86 19 -63 43 -62 36 -55 428 4 195 11 372
16 393 12 44 59 101 103 124 94 49 221 67 264 37z m-998 -74 c0 -5 -5 -10 -11
-10 -5 0 -7 5 -4 10 3 6 8 10 11 10 2 0 4 -4 4 -10z m-1512 -60 c106 0 192 -4
192 -9 0 -10 -95 -135 -142 -187 l-31 -34 -204 0 c-237 0 -233 -2 -157 96 25
32 60 78 77 102 24 33 36 42 52 38 11 -3 107 -6 213 -6z m-368 -10 c0 -5 -10
-10 -22 -10 -19 0 -20 2 -8 10 19 13 30 13 30 0z m1072 4 c4 -3 -1 -13 -10
-23 -9 -9 -28 -32 -42 -50 -14 -18 -43 -56 -66 -85 l-40 -51 -75 -6 c-98 -8
-299 -10 -299 -3 0 7 112 165 141 198 l23 26 181 0 c100 0 184 -3 187 -6z
m1301 -26 c42 -22 48 -48 50 -234 2 -167 1 -182 -20 -220 -32 -60 -87 -104
-185 -149 l-88 -40 0 -177 0 -176 -69 -21 c-38 -12 -72 -21 -75 -21 -3 0 -5
218 -3 485 l2 486 25 5 c14 3 72 21 130 39 144 47 181 50 233 23z m-2800 -22
c4 -10 1 -13 -7 -10 -19 7 -28 -23 -15 -48 9 -17 13 -18 21 -7 6 10 7 7 3 -10
-6 -19 -4 -23 9 -18 8 3 18 1 22 -5 4 -7 9 -6 14 2 9 15 80 5 80 -10 0 -6 9
-10 20 -10 11 0 20 -6 20 -12 0 -10 2 -10 8 0 6 9 12 5 20 -13 9 -20 17 -25
32 -20 11 4 20 3 20 -2 0 -12 -325 -14 -355 -3 -32 12 -31 23 3 68 23 31 94
112 98 112 1 0 4 -7 7 -14z m297 -121 c0 -2 -6 -8 -13 -14 -10 -8 -14 -7 -14
2 0 8 6 14 14 14 7 0 13 -1 13 -2z m1817 -89 l28 -24 3 -162 c4 -173 -1 -201
-43 -240 l-24 -22 33 -32 33 -31 5 -175 c3 -96 7 -181 9 -188 3 -9 -19 -21
-66 -37 -38 -13 -73 -21 -77 -18 -5 2 -8 80 -8 173 0 197 1 195 -91 171 l-59
-16 0 -200 0 -200 -68 -22 c-37 -11 -68 -20 -70 -19 -1 2 -5 221 -9 489 l-6
485 35 7 c19 4 86 24 149 45 138 46 187 50 226 16z m-2447 -55 c0 -59 6 -60
605 -63 297 -1 523 -5 502 -9 -42 -7 -60 -18 -31 -21 10 0 -12 -4 -51 -8 -86
-9 -1041 -12 -1072 -4 -30 8 -31 54 -2 100 26 42 49 45 49 5z m1964 -107 c3
-30 4 -59 2 -63 -3 -4 -59 -25 -125 -46 l-121 -40 0 -131 0 -132 78 25 c133
44 123 47 120 -38 l-3 -73 -97 -31 -98 -30 0 -147 c0 -82 1 -148 3 -148 2 0
48 15 103 34 162 55 144 58 144 -21 l-1 -68 -87 -28 c-48 -15 -135 -43 -194
-62 -59 -19 -109 -35 -111 -35 -2 0 -3 219 -1 488 l4 487 92 27 c51 14 131 40
178 56 47 16 90 30 96 31 6 0 14 -23 18 -55z m-835 -78 c9 -10 9 -16 1 -21 -6
-4 -14 -4 -17 -1 -4 3 -1 6 6 6 7 0 9 5 6 10 -3 6 -13 10 -21 10 -9 0 -12 -5
-8 -12 5 -8 -2 -9 -24 -5 -42 8 -41 0 1 -13 l32 -10 -32 5 c-25 3 -31 1 -27
-10 4 -10 0 -12 -15 -8 -12 3 -21 1 -21 -6 0 -6 -11 -11 -25 -11 -14 0 -25 -4
-25 -10 0 -5 -10 -8 -22 -6 -13 3 -26 5 -30 5 -5 1 -8 9 -8 19 0 13 19 22 81
40 44 12 84 20 89 17 5 -3 11 -1 15 5 9 14 31 12 44 -4z m-459 -17 l75 -2 -65
-7 c-36 -5 -217 -11 -403 -16 -281 -6 -340 -5 -347 6 -5 8 -7 17 -4 21 4 6
464 5 744 -2z m764 -61 c54 -24 61 -48 64 -239 3 -161 2 -180 -17 -216 -28
-56 -82 -99 -180 -146 -47 -23 -89 -46 -93 -52 -4 -5 -8 -85 -8 -177 l0 -166
-71 -27 c-38 -15 -71 -26 -73 -24 -1 2 0 220 2 485 l4 481 142 46 c148 48 188
55 230 35z m-1423 -56 c-18 -2 -37 0 -42 5 -5 5 11 6 34 3 41 -4 41 -5 8 -8z
m518 9 c23 -15 -1 -19 -105 -16 -151 4 -171 24 -24 25 63 0 121 -4 129 -9z
m153 -7 c-12 -8 -28 -13 -35 -11 -7 3 -1 9 13 15 37 16 47 14 22 -4z m98 1 c0
-2 -6 -5 -13 -8 -8 -3 -14 1 -14 8 0 7 6 11 14 8 7 -3 13 -6 13 -8z m-195 -5
c8 -13 -5 -13 -25 0 -13 8 -13 10 2 10 9 0 20 -4 23 -10z m155 0 c0 -5 -2 -10
-4 -10 -3 0 -8 5 -11 10 -3 6 -1 10 4 10 6 0 11 -4 11 -10z m230 -475 l0 -416
-25 -50 c-54 -106 -158 -171 -277 -173 -52 -1 -61 2 -90 32 l-33 32 0 429 0
428 63 18 c34 10 66 14 70 11 4 -4 7 -182 8 -395 0 -213 4 -393 8 -399 12 -19
49 -14 87 13 l37 24 5 288 c3 158 5 304 4 323 -1 19 0 74 1 122 l2 86 63 20
c34 11 65 20 70 21 4 1 7 -186 7 -414z m-553 370 c13 -14 11 -16 -16 -21 -17
-4 -34 -11 -37 -15 -3 -5 -15 -9 -27 -8 -20 1 -20 2 3 9 l25 7 -25 11 c-22 9
-23 11 -5 13 11 1 25 1 32 0 6 -1 14 3 18 9 8 14 14 13 32 -5z m3635 -100
c-19 -14 -88 -35 -112 -35 -12 1 -11 3 3 11 9 6 14 15 11 21 -4 6 -3 8 4 5 5
-4 21 -3 34 2 12 5 35 9 51 8 24 0 25 -1 9 -12z m-161 -51 c-18 -8 -36 -13
-39 -10 -6 7 37 25 58 25 8 -1 0 -7 -19 -15z m-3462 -53 c25 -23 31 -37 31
-69 0 -21 3 -60 6 -86 7 -46 7 -46 -32 -62 -21 -9 -53 -18 -71 -21 l-33 -6 0
60 c0 76 -12 89 -69 72 -22 -7 -47 -19 -55 -28 -13 -15 -22 -96 -18 -169 2
-38 33 -61 129 -93 43 -14 72 -31 96 -58 33 -37 34 -40 40 -152 7 -120 0 -172
-28 -215 -76 -116 -253 -187 -346 -139 -41 22 -49 50 -49 165 l0 99 54 15 c88
26 86 28 86 -69 0 -93 4 -98 63 -76 50 19 75 59 82 130 10 100 2 112 -107 164
-51 25 -109 59 -128 75 l-35 30 0 139 c0 138 0 140 30 189 46 73 165 132 271
133 44 1 57 -3 83 -28z m3366 19 c-11 -5 -27 -9 -35 -9 -13 -1 -13 0 0 9 8 5
24 9 35 9 l20 0 -20 -9z m-95 -28 c-8 -3 -18 -9 -21 -15 -4 -5 -11 -1 -17 10
-10 18 -8 19 21 15 18 -3 25 -7 17 -10z m-69 -22 c-13 -11 -31 -20 -40 -20 -9
1 0 9 19 19 46 24 50 25 21 1z m-106 -41 c-50 -16 -65 -18 -65 -9 0 8 34 16
75 18 12 0 8 -4 -10 -9z m-75 -20 c0 -8 -42 -20 -49 -14 -2 3 2 5 10 5 12 0
12 2 0 9 -10 7 -7 9 12 8 15 -1 27 -5 27 -8z m-154 -18 c-4 -5 3 -7 14 -4 14
4 20 0 20 -11 0 -10 -6 -13 -15 -10 -8 4 -15 2 -15 -4 0 -5 -15 -12 -32 -15
-18 -3 -41 -8 -50 -12 -15 -6 -18 -2 -18 20 0 20 4 26 15 21 8 -3 15 0 15 5 0
6 9 9 20 6 11 -3 23 -1 26 4 3 5 10 9 15 9 6 0 8 -4 5 -9z m-154 -63 c-7 -31
-22 -39 -56 -32 -18 4 -26 2 -22 -4 3 -5 -2 -12 -12 -15 -9 -2 -24 -8 -32 -11
-11 -5 -16 0 -16 14 0 15 8 23 28 27 15 3 28 11 28 19 0 11 21 18 72 23 12 1
15 -5 10 -21z m48 8 c0 -3 -4 -8 -10 -11 -5 -3 -10 -1 -10 4 0 6 5 11 10 11 6
0 10 -2 10 -4z m-217 -63 c-7 -2 -10 -10 -7 -18 4 -9 -11 -17 -53 -26 -32 -7
-62 -16 -67 -21 -16 -13 -29 -9 -17 5 8 10 7 17 -1 25 -16 16 48 40 93 34 22
-2 40 1 44 8 4 6 10 8 14 4 3 -4 1 -9 -6 -11z m-172 -51 c-6 -11 -8 -22 -4
-25 3 -3 -8 -9 -23 -12 -16 -4 -43 -11 -60 -16 -78 -24 -124 -26 -153 -9 -11
8 -5 9 22 4 41 -7 101 12 91 28 -4 6 2 6 13 -1 22 -11 93 -4 93 10 0 4 -15 9
-32 11 l-33 3 45 16 c25 9 46 15 48 13 2 -1 -1 -11 -7 -22z m-184 -48 c-3 -3
-12 -4 -19 -1 -8 3 -5 6 6 6 11 1 17 -2 13 -5z m-59 -30 c18 -8 36 -13 42 -9
5 3 10 4 10 0 0 -3 -12 -10 -26 -16 -20 -7 -32 -6 -50 6 -13 8 -24 13 -24 10
0 -3 0 -8 0 -12 0 -5 4 -8 9 -8 5 0 12 -3 15 -7 3 -5 3 -6 0 -4 -3 3 -23 -1
-43 -9 -21 -7 -50 -11 -64 -8 -20 4 -27 1 -27 -11 0 -13 -21 -22 -32 -14 -2 1
-13 -4 -25 -11 -15 -7 -23 -8 -23 -1 0 5 5 10 11 10 5 0 7 5 4 11 -4 6 -14 8
-24 4 -10 -4 -12 -3 -6 3 6 5 21 13 35 17 19 5 21 4 10 -4 -8 -6 -12 -11 -7
-12 24 -5 33 -3 42 8 6 6 21 13 35 15 14 2 24 9 23 15 -1 6 17 18 40 26 23 8
42 15 43 16 0 0 15 -6 32 -15z m-283 -74 c-3 -5 -14 -10 -23 -9 -14 0 -13 2 3
9 27 11 27 11 20 0z m27 -17 c-6 -2 -10 -9 -6 -14 6 -11 2 -11 -21 -3 -13 5
-14 8 -3 15 7 5 20 8 28 8 10 0 11 -2 2 -6z m-115 -19 c-3 -3 -12 -4 -19 -1
-8 3 -5 6 6 6 11 1 17 -2 13 -5z m48 -22 c-8 -8 -66 -11 -61 -4 2 4 18 7 35 8
17 1 29 -1 26 -4z m-138 -9 c-9 -2 -15 -9 -12 -14 4 -5 1 -9 -4 -9 -12 0 -14
13 -4 23 3 4 13 6 22 6 13 -1 12 -2 -2 -6z m-37 -19 c0 -13 7 -15 35 -10 50
10 43 1 -14 -18 -61 -20 -74 -20 -41 -1 19 11 21 14 8 15 -18 0 -23 11 -11 23
11 12 23 7 23 -9z m-37 -8 c6 -16 -10 -26 -30 -19 -9 4 -9 8 0 19 16 17 24 17
30 0z m-65 -33 c-11 -14 -10 -15 12 -8 24 7 24 7 5 -9 -23 -17 -39 -21 -30 -6
8 12 -35 13 -54 1 -7 -5 -11 -13 -8 -18 8 -12 -18 -25 -100 -52 -35 -11 -63
-15 -63 -10 0 5 -5 9 -11 9 -5 0 -8 -4 -4 -9 7 -12 -4 -19 -38 -25 -30 -5 -35
5 -12 24 8 7 12 16 9 21 -3 5 9 6 27 2 22 -4 30 -3 25 5 -3 6 -2 13 4 17 5 3
10 1 10 -5 0 -6 5 -8 10 -5 6 4 7 11 4 17 -5 7 0 9 14 6 14 -4 20 -2 15 5 -4
7 0 8 12 3 10 -3 27 0 39 7 12 8 43 17 70 21 37 6 46 10 35 18 -10 7 -7 7 10
3 17 -5 22 -4 16 5 -5 9 -4 11 4 6 9 -6 9 -11 -1 -23z m-395 -140 c-5 -15 -3
-16 8 -5 15 14 58 17 44 3 -6 -6 -21 -11 -35 -13 -14 -2 -39 -12 -57 -21 -38
-20 -47 -21 -37 -6 5 9 -1 10 -22 5 -19 -4 -24 -3 -15 3 12 8 12 10 0 14 -8 2
-3 2 9 0 14 -2 21 0 18 6 -4 5 -1 13 5 17 8 4 9 3 5 -4 -12 -19 29 -33 50 -17
11 8 15 15 9 15 -5 0 -3 5 5 10 20 13 20 13 13 -7z m-146 -29 c-3 -3 -12 -4
-19 -1 -8 3 -5 6 6 6 11 1 17 -2 13 -5z m33 -34 c-20 -13 -43 -13 -35 0 3 6
16 10 28 10 18 0 19 -2 7 -10z m-180 -34 l-24 -14 24 -5 c22 -4 22 -5 -5 -5
-16 -1 -41 -3 -55 -5 -14 -2 -16 -2 -6 0 16 4 17 7 5 15 -11 8 -10 9 4 4 10
-3 28 1 40 9 12 8 26 15 32 15 5 -1 -1 -7 -15 -14z m71 -2 c-18 -8 -36 -13
-39 -10 -6 7 37 25 58 25 8 -1 0 -7 -19 -15z m-194 -56 c-2 -7 -10 -13 -18
-13 -8 0 -18 -3 -24 -6 -5 -3 -32 -12 -60 -19 -27 -7 -55 -17 -61 -21 -6 -5
-24 -10 -40 -12 -17 -2 -35 -7 -42 -11 -7 -4 -27 -12 -44 -17 l-31 -9 21 20
c12 11 29 20 39 21 13 1 10 3 -7 9 -27 9 -25 9 35 15 96 9 112 12 126 20 8 5
25 8 39 7 19 -2 21 0 11 7 -11 7 -8 10 15 14 16 2 33 5 37 6 5 0 7 -5 4 -11z
m2332 -83 c-13 -7 -40 -16 -59 -19 -19 -4 -48 -12 -63 -18 -17 -6 -32 -7 -37
-2 -5 5 2 10 17 11 14 0 29 6 33 12 3 7 20 14 36 17 16 3 30 7 32 9 2 2 18 3
34 3 31 -1 31 -1 7 -13z m-3176 -327 c12 -6 96 -81 186 -165 90 -85 216 -200
280 -256 125 -110 231 -215 231 -229 0 -27 44 8 180 143 138 136 193 179 233
179 20 0 18 -38 -2 -45 -10 -3 -100 -87 -200 -186 -191 -191 -191 -190 -243
-155 -9 7 -144 136 -299 287 -406 394 -429 417 -429 429 0 14 36 13 63 -2z
m1297 -420 c0 -14 -68 -75 -159 -144 -31 -23 -101 -81 -156 -128 -55 -47 -108
-86 -117 -86 -10 0 -18 2 -18 4 0 2 33 37 73 77 197 199 377 330 377 277z"/>
<path d="M2694 4720 c-21 -8 -84 -75 -84 -89 0 -5 10 -21 21 -36 l22 -27 -31
-31 c-30 -29 -57 -33 -34 -4 14 16 6 27 -19 27 -19 0 -39 -28 -39 -53 0 -14
40 -37 66 -37 20 0 114 89 114 108 0 9 -10 26 -22 39 -27 28 -16 57 23 60 22
2 22 2 4 -6 -19 -8 -18 -10 8 -20 37 -14 47 -7 47 33 0 26 -5 35 -22 40 -27 7
-28 7 -54 -4z"/>
<path d="M2825 4708 c-9 -13 -28 -41 -42 -63 -15 -22 -42 -62 -61 -90 l-34
-49 22 -18 c48 -39 86 -14 167 110 31 48 60 89 64 90 15 6 10 32 -6 32 -8 0
-33 -28 -56 -62 -55 -83 -108 -148 -120 -148 -16 0 -10 35 9 56 22 23 85 122
95 147 10 25 -19 22 -38 -5z"/>
<path d="M3138 4695 c-16 -18 -28 -36 -28 -39 0 -3 -22 -41 -50 -83 -27 -42
-50 -83 -50 -90 0 -16 97 -18 120 -3 13 9 13 11 0 20 -8 5 -25 10 -37 10 -21
0 -21 1 -7 30 14 28 26 34 78 42 31 5 29 25 -3 36 l-30 11 27 30 c21 24 35 31
64 31 27 0 38 4 38 15 0 8 -8 15 -17 16 -10 0 -31 2 -48 4 -24 2 -36 -4 -57
-30z"/>
<path d="M3293 4711 c-3 -9 -16 -29 -27 -46 -34 -48 -106 -172 -106 -184 0
-26 33 -7 66 39 20 28 40 50 45 50 12 0 12 -1 -6 -43 -19 -45 -19 -57 0 -57 8
0 21 13 29 28 8 16 22 34 30 41 9 8 16 21 16 31 0 9 9 25 21 36 27 24 49 67
49 94 0 14 -7 20 -25 22 -79 5 -87 4 -92 -11z m43 -70 c-10 -19 -24 -31 -36
-31 -26 0 -25 4 7 46 32 42 53 32 29 -15z"/>
<path d="M3476 4624 c-38 -59 -71 -115 -74 -126 -8 -33 23 -19 48 22 18 29 31
40 50 40 63 0 96 19 123 69 32 57 35 91 10 91 -10 0 -34 3 -53 5 -35 5 -35 5
-104 -101z m118 58 c9 -16 -33 -72 -54 -72 -22 0 -22 3 12 53 20 27 33 34 42
19z"/>
<path d="M3691 4692 c-39 -42 -111 -162 -111 -187 0 -8 10 -20 23 -26 34 -15
93 11 115 52 9 17 34 58 55 90 42 68 45 84 18 99 -35 18 -63 11 -100 -28z m69
-7 c0 -11 -64 -121 -83 -142 -46 -52 -50 -8 -6 63 40 63 59 84 76 84 7 0 13
-2 13 -5z"/>
<path d="M3850 4694 c-42 -39 -49 -66 -25 -98 21 -28 19 -52 -7 -70 -30 -21
-41 -20 -29 3 11 20 5 31 -15 31 -11 0 -44 -48 -44 -63 0 -3 13 -10 30 -17 37
-15 69 -8 109 26 37 31 40 63 10 104 -21 28 -21 30 -5 54 9 15 21 26 26 26 14
0 21 -18 8 -22 -15 -5 -1 -28 17 -28 17 0 45 27 45 45 0 21 -29 45 -56 45 -14
0 -41 -16 -64 -36z"/>
<path d="M2974 4693 c-9 -16 -36 -57 -60 -93 -49 -74 -70 -117 -61 -126 9 -10
26 5 52 46 19 31 33 40 62 45 64 11 80 21 113 80 38 66 33 75 -42 75 -41 0
-50 -4 -64 -27z m56 -48 c-13 -24 -46 -42 -57 -32 -3 3 7 22 23 42 18 24 30
33 37 26 7 -7 6 -19 -3 -36z"/>
<path d="M3685 3389 c-4 -6 -5 -12 -2 -15 2 -3 7 2 10 11 7 17 1 20 -8 4z"/>
<path d="M4105 3469 c-4 -6 -4 -13 -1 -16 3 -4 6 -1 6 6 0 7 4 10 9 6 5 -3 12
-1 16 5 3 5 -1 10 -9 10 -8 0 -18 -5 -21 -11z"/>
<path d="M4558 3338 c-26 -11 -49 -26 -52 -33 -3 -8 -6 -161 -7 -340 -2 -231
1 -329 9 -337 16 -16 83 5 108 33 16 18 20 43 26 167 9 200 9 495 0 508 -14
21 -39 22 -84 2z"/>
<path d="M4031 3163 l-44 -16 5 -164 c3 -90 8 -166 11 -169 8 -9 90 31 108 52
13 15 17 48 20 164 l4 145 -30 2 c-16 1 -50 -5 -74 -14z"/>
<path d="M1360 3209 c0 -5 5 -7 10 -4 6 3 10 8 10 11 0 2 -4 4 -10 4 -5 0 -10
-5 -10 -11z"/>
<path d="M3333 2932 l-43 -16 0 -148 c0 -82 4 -148 9 -148 5 0 34 10 65 21 40
16 58 28 61 43 8 43 16 232 9 249 -8 21 -43 21 -101 -1z"/>
<path d="M2348 2607 l-38 -11 0 -168 c0 -113 4 -168 11 -168 20 0 100 52 115
75 11 17 14 51 12 151 l-3 129 -30 1 c-16 1 -47 -3 -67 -9z"/>
<path d="M4120 2180 c0 -5 5 -10 10 -10 6 0 10 5 10 10 0 6 -4 10 -10 10 -5 0
-10 -4 -10 -10z"/>
<path d="M4020 2140 c-13 -9 -13 -10 0 -10 8 0 22 5 30 10 13 9 13 10 0 10 -8
0 -22 -5 -30 -10z"/>
<path d="M2888 1763 c7 -3 16 -2 19 1 4 3 -2 6 -13 5 -11 0 -14 -3 -6 -6z"/>
<path d="M5265 4641 c-45 -21 -162 -64 -260 -95 -99 -31 -205 -64 -235 -74
-52 -16 -87 -52 -74 -74 10 -16 93 -8 180 18 49 14 118 31 155 39 94 20 230
71 245 93 7 10 32 24 56 31 55 16 68 28 68 57 0 21 -26 45 -47 43 -4 0 -44
-18 -88 -38z"/>
<path d="M5849 4606 c-2 -2 -26 -7 -54 -10 -48 -6 -248 -67 -425 -128 -47 -16
-107 -37 -135 -45 -27 -9 -111 -37 -185 -63 -142 -50 -188 -66 -309 -102 -54
-17 -80 -31 -95 -50 -11 -15 -16 -31 -12 -35 12 -12 201 31 372 85 376 119
489 156 544 177 19 7 109 37 199 66 89 29 170 58 179 65 27 20 7 44 -36 44
-21 0 -41 -2 -43 -4z"/>
<path d="M1450 4069 c-231 -16 -362 -49 -472 -116 -83 -51 -22 -57 127 -13 70
21 140 33 235 41 74 6 163 17 197 25 34 8 78 14 97 14 27 0 36 5 41 21 13 41
-7 43 -225 28z"/>
<path d="M970 4036 c-54 -14 -107 -49 -174 -113 -53 -52 -126 -190 -145 -273
-26 -115 11 -333 54 -316 7 2 16 -2 19 -10 6 -15 -59 -49 -114 -61 -25 -5 -30
-10 -30 -35 0 -24 4 -29 18 -25 122 35 538 170 559 181 15 8 39 26 53 41 l25
28 -39 -7 c-21 -4 -120 -34 -220 -67 -207 -68 -226 -70 -226 -34 0 14 -8 42
-17 63 -12 27 -16 66 -17 143 l0 105 47 96 c32 64 64 111 94 140 25 24 65 64
91 91 25 26 51 47 59 47 7 0 13 5 13 10 0 6 -1 10 -2 9 -2 0 -23 -6 -48 -13z"/>
<path d="M1191 3749 c-129 -31 -201 -64 -201 -90 0 -21 11 -20 100 6 25 8 77
23 116 34 55 16 73 26 82 46 14 31 9 31 -97 4z"/>
<path d="M5573 3716 c-62 -18 -115 -35 -118 -37 -15 -15 139 7 191 27 33 13
66 24 73 24 7 0 9 5 6 10 -9 15 -29 12 -152 -24z"/>
<path d="M865 3661 c-41 -15 -51 -22 -53 -44 -3 -23 2 -30 29 -41 l31 -13 -31
-11 c-26 -9 -31 -16 -31 -41 0 -29 2 -31 39 -31 44 0 101 39 101 69 0 22 -19
41 -42 41 -28 0 -21 15 15 31 21 9 32 21 32 34 0 26 -27 28 -90 6z"/>
<path d="M1225 3653 c-159 -35 -232 -63 -220 -83 11 -18 78 -10 170 18 75 23
91 32 93 50 3 22 -2 24 -43 15z"/>
<path d="M890 3246 c-85 -29 -180 -63 -210 -74 -30 -12 -67 -22 -82 -22 -23 0
-28 -4 -28 -25 0 -14 4 -25 9 -25 6 0 56 15 113 34 57 18 163 52 236 76 77 24
145 52 160 66 l27 23 -35 0 c-19 0 -105 -24 -190 -53z"/>
<path d="M945 3163 c-11 -2 -100 -29 -197 -61 -143 -45 -178 -60 -178 -74 0
-12 8 -18 23 -18 38 0 357 103 378 123 17 16 18 39 1 36 -4 -1 -16 -3 -27 -6z"/>
<path d="M164 2574 c-27 -30 -57 -71 -67 -90 -31 -61 -23 -73 90 -134 57 -30
103 -59 103 -64 0 -17 -53 -66 -72 -66 -10 0 -29 17 -43 40 -14 22 -29 40 -33
40 -4 0 -25 -16 -47 -34 l-40 -35 35 -30 c57 -51 117 -83 140 -76 11 3 51 37
90 74 107 104 98 142 -51 217 -93 46 -95 48 -56 91 16 18 23 20 44 10 13 -6
31 -24 39 -40 8 -15 19 -27 23 -25 15 6 91 78 91 86 0 16 -139 92 -168 92 -23
0 -40 -12 -78 -56z"/>
<path d="M5935 2322 c-100 -48 -244 -109 -320 -136 -77 -26 -183 -65 -235 -86
-52 -21 -107 -41 -122 -44 -17 -4 -28 -13 -28 -24 0 -14 -2 -15 -10 -2 -8 12
-66 -4 -377 -107 -202 -67 -413 -135 -468 -153 -216 -66 -512 -162 -545 -175
-19 -8 -71 -25 -115 -39 -44 -13 -154 -48 -245 -76 -143 -44 -334 -109 -580
-194 -72 -26 -221 -76 -318 -108 -37 -13 -59 -25 -54 -30 5 -5 32 -1 65 10 31
11 74 23 96 27 23 4 41 11 41 15 0 5 16 12 37 16 20 4 48 13 62 20 14 8 34 14
45 14 25 0 98 21 110 32 6 4 17 8 26 8 9 0 35 9 58 20 22 11 47 20 54 20 20 0
259 79 303 101 22 10 49 19 60 19 11 1 38 8 60 16 22 8 49 16 60 18 11 2 47
11 80 20 32 9 67 16 78 16 10 0 27 9 39 19 11 11 43 25 70 32 28 6 73 20 102
31 28 11 76 26 106 33 30 7 122 36 204 64 82 28 157 51 167 51 10 0 32 12 49
27 25 20 34 23 40 13 7 -11 19 -9 61 10 30 12 59 30 66 39 11 14 14 14 22 1 8
-11 15 -12 33 -3 42 19 458 151 504 159 16 3 44 14 62 25 18 10 43 19 55 19
12 0 58 12 102 26 44 14 122 36 173 50 107 28 162 53 188 87 11 13 73 47 139
77 125 55 196 96 203 118 7 23 -23 12 -203 -76z m-545 -246 c0 -3 -4 -8 -10
-11 -5 -3 -10 -1 -10 4 0 6 5 11 10 11 6 0 10 -2 10 -4z"/>
<path d="M5323 1815 c-33 -14 -53 -58 -53 -118 0 -32 39 -77 67 -77 47 0 93
65 93 130 0 33 -11 49 -47 68 -26 14 -21 14 -60 -3z"/>
<path d="M4883 1310 c-12 -11 -26 -20 -31 -20 -5 0 -17 -9 -27 -20 -10 -11
-26 -20 -37 -20 -13 0 -18 -7 -18 -27 l0 -27 34 33 c26 26 45 34 76 36 47 3
63 14 58 41 -5 26 -30 28 -55 4z"/>
<path d="M4623 1255 c-31 -31 -34 -37 -22 -52 13 -15 14 -14 17 10 3 27 38 60
53 51 14 -8 8 -102 -7 -108 -8 -3 -14 -1 -14 5 0 5 -11 2 -25 -8 -45 -33 -23
-93 27 -74 32 12 68 57 68 84 0 11 -7 28 -15 37 -12 13 -13 23 -6 42 7 18 6
29 -2 37 -19 19 -37 13 -74 -24z"/>
<path d="M4428 1207 c-43 -16 -58 -28 -63 -45 -3 -14 -4 -26 -1 -29 3 -4 125
25 134 33 2 1 5 16 7 33 5 37 1 37 -77 8z"/>
<path d="M4160 1114 c-41 -14 -88 -31 -105 -38 -16 -8 -49 -20 -72 -27 -68
-19 -52 -32 30 -25 72 7 190 39 219 60 21 15 33 56 16 55 -7 -1 -47 -12 -88
-25z"/>
<path d="M4306 1121 c-4 -7 -5 -15 -2 -18 9 -9 19 4 14 18 -4 11 -6 11 -12 0z"/>
<path d="M4250 1023 c-146 -47 -292 -91 -325 -99 -33 -7 -118 -35 -190 -62
-139 -52 -277 -97 -500 -163 -143 -42 -307 -109 -313 -128 -4 -12 13 -14 63
-11 40 3 288 64 345 85 25 10 101 30 170 45 69 15 159 40 200 54 41 15 256 88
477 163 l401 136 -26 34 c-15 18 -29 33 -32 32 -3 0 -124 -39 -270 -86z"/>
</g>
</svg>
